<svg xmlns="http://www.w3.org/2000/svg" viewBox="0 0 515.1 144.69"><defs><style>.cls-1{fill:#f08c30;}.cls-2{fill:none;}.cls-3{fill-rule:evenodd;}</style></defs><g id="Layer_2" data-name="Layer 2"><g id="Layer_1-2" data-name="Layer 1"><path d="M428.06,78.73a1.57,1.57,0,0,1-1.53,1H422c-1,0-1.4-.68-1-1.54l16.6-32.88c.34-.67.63-.77.92-.77s.57.1.91.77L456.1,78.15c.43.86,0,1.54-1,1.54h-4.52a1.62,1.62,0,0,1-1.53-1l-2.26-4.56H430.27Zm10.52-21.41-5,11h10Zm38.76-11.81a1.46,1.46,0,0,1,1.49-1h4.7a1,1,0,0,1,1,1.54L469.18,78.92c-.29.62-.53.77-.86.77s-.58-.15-.87-.77L452.19,46.09c-.39-.87,0-1.54,1-1.54h4.65a1.46,1.46,0,0,1,1.49,1l9,19.44Zm37.76,3.7a1.18,1.18,0,0,1-1.29,1.29H496v8.79h15.7a1.18,1.18,0,0,1,1.29,1.29v3.36a1.19,1.19,0,0,1-1.29,1.3H496v8.49h17.86A1.19,1.19,0,0,1,515.1,75v3.36a1.19,1.19,0,0,1-1.29,1.3H490.57a1.19,1.19,0,0,1-1.29-1.3V45.85a1.19,1.19,0,0,1,1.29-1.3h23.24a1.19,1.19,0,0,1,1.29,1.3Z"/><path d="M202.57,54.15c0,3.7-2.26,7-5.71,7.15v.05c3.45.19,7.15,3.12,7.15,8.3,0,7.73-5.67,10-11.71,10H178.14a1.19,1.19,0,0,1-1.3-1.3V45.85a1.19,1.19,0,0,1,1.3-1.3h13.63C198.2,44.55,202.57,47.09,202.57,54.15Zm-19,4.66h7.54c3.45,0,4.75-1.64,4.75-4.37S194,50.5,191.14,50.5h-7.58Zm8.26,14.92c3.31,0,5.47-1.34,5.47-4.46s-2.16-4.46-5.62-4.46h-8.11v8.92Zm25.07-5.23v9.89a1.19,1.19,0,0,1-1.3,1.3h-4.08a1.19,1.19,0,0,1-1.3-1.3V45.85a1.19,1.19,0,0,1,1.3-1.3h14.64c7.15,0,12.1,5,12.1,12.1,0,5.28-2.88,10-7.3,11.23l7.63,10.22c.63.87.24,1.59-.81,1.59h-5a1.88,1.88,0,0,1-1.59-.82L223.56,68.5Zm0-5.85h7.68c5.66,0,7-3.08,7-6,0-3.41-2.06-6.1-7-6.1h-7.68Zm31.58,16.08a1.6,1.6,0,0,1-1.54,1h-4.51c-1,0-1.39-.68-1-1.54l16.61-32.88c.34-.67.62-.77.91-.77s.58.1.91.77L276.5,78.15c.43.86.05,1.54-1,1.54H271a1.65,1.65,0,0,1-1.54-1l-2.25-4.56H250.68ZM259,57.32l-5,11h10Zm28.34-12.77a1.19,1.19,0,0,1,1.3,1.3V78.39a1.19,1.19,0,0,1-1.3,1.3h-4.13a1.19,1.19,0,0,1-1.29-1.3V45.85a1.19,1.19,0,0,1,1.29-1.3Zm9.47,33.84V45c0-.38.15-.53.44-.53s.52.19,1,.67L320.6,66V45.85a1.19,1.19,0,0,1,1.3-1.3H326a1.19,1.19,0,0,1,1.3,1.3V79.21c0,.38-.14.52-.43.52s-.48-.19-1-.62l-22.47-20.5V78.39a1.19,1.19,0,0,1-1.29,1.3h-4.08A1.19,1.19,0,0,1,296.79,78.39Z"/><path d="M188.18,93.12a.54.54,0,0,1,.6.6v.67a.55.55,0,0,1-.6.6h-4.73v15.1a.55.55,0,0,1-.6.6h-1a.54.54,0,0,1-.6-.6V95h-4.76a.55.55,0,0,1-.6-.6v-.67a.54.54,0,0,1,.6-.6Zm14.71,0a.4.4,0,0,1,.43.43v1a.4.4,0,0,1-.43.43H193.2V101h8.52a.4.4,0,0,1,.43.43v1.06a.4.4,0,0,1-.43.43H193.2v5.81h9.69a.39.39,0,0,1,.43.43v1a.4.4,0,0,1-.43.44H191.37a.41.41,0,0,1-.43-.44V93.55a.4.4,0,0,1,.43-.43Zm18.37,13.73a.49.49,0,0,1,.22.81,8.26,8.26,0,0,1-7.1,3.41,9.15,9.15,0,0,1,0-18.29,8.72,8.72,0,0,1,7.1,3.46.48.48,0,0,1-.24.81l-1,.39a.59.59,0,0,1-.79-.22,6.54,6.54,0,0,0-5.11-2.37,7.09,7.09,0,0,0,0,14.16,6.51,6.51,0,0,0,5.11-2.4.59.59,0,0,1,.81-.2Zm16.45-13.13a.54.54,0,0,1,.6-.6h1.06a.54.54,0,0,1,.6.6v16.37a.55.55,0,0,1-.6.6h-1.06a.55.55,0,0,1-.6-.6v-6.92H227.27v6.92a.54.54,0,0,1-.6.6h-1a.54.54,0,0,1-.6-.6V93.72a.54.54,0,0,1,.6-.6h1a.54.54,0,0,1,.6.6v7.56h10.44Zm20.45-.6a.54.54,0,0,1,.6.6v16.65c0,.17-.07.32-.26.32s-.26-.08-.48-.32L246.16,98.06v12a.54.54,0,0,1-.6.6h-1a.55.55,0,0,1-.6-.6V93.45c0-.24.12-.33.29-.33s.26.07.48.31l11.83,12.22V93.72a.54.54,0,0,1,.6-.6Zm12.58,17.93a9.15,9.15,0,1,1,9-9.15A8.91,8.91,0,0,1,270.74,111.05Zm0-16.25a7.12,7.12,0,1,0,6.77,7.1A7,7,0,0,0,270.74,94.8Zm14.28,14h9.24a.54.54,0,0,1,.6.6v.65a.54.54,0,0,1-.6.6H283.37a.54.54,0,0,1-.6-.6V93.72a.54.54,0,0,1,.6-.6h1.05a.54.54,0,0,1,.6.6Zm19.31,2.21a9.15,9.15,0,1,1,9-9.15A8.92,8.92,0,0,1,304.33,111.05Zm0-16.25a7.12,7.12,0,1,0,6.77,7.1A7,7,0,0,0,304.33,94.8Zm19.9,16.25a8.89,8.89,0,0,1-9-9.12,9,9,0,0,1,15.65-6.15.5.5,0,0,1-.14.82l-.89.57a.56.56,0,0,1-.84-.12,6.5,6.5,0,0,0-4.8-2.23,7,7,0,0,0-6.74,7.11,6.85,6.85,0,0,0,6.72,7.08c3.81,0,6.19-2.19,6.43-5.4h-6.43a.54.54,0,0,1-.6-.6v-.72a.54.54,0,0,1,.6-.6h7.82c.46,0,.74.16.79.62a4.67,4.67,0,0,1,0,.6C332.87,107.35,329.58,111.05,324.23,111.05Zm13.9-17.93a.54.54,0,0,1,.6.6v16.37a.54.54,0,0,1-.6.6h-1.05a.54.54,0,0,1-.6-.6V93.72a.54.54,0,0,1,.6-.6Zm17.18,0a.4.4,0,0,1,.43.43v1a.4.4,0,0,1-.43.43h-9.7V101h8.52a.4.4,0,0,1,.43.43v1.06a.4.4,0,0,1-.43.43h-8.52v5.81h9.7a.4.4,0,0,1,.43.43v1a.41.41,0,0,1-.43.44H343.79a.41.41,0,0,1-.44-.44V93.55a.41.41,0,0,1,.44-.43Z"/><path class="cls-1" d="M139.56,19.93,132,12.36a2.48,2.48,0,0,0-1.73-.71,2.44,2.44,0,0,0-1.73.71L115.29,25.61a2.46,2.46,0,0,0,0,3.46l3.25,3.25-1.17,1.16a6.79,6.79,0,0,0-8.66.06l4.3,4.3-1.53,1.54a1.84,1.84,0,1,0,1.07,1.08l1.54-1.54,4.3,4.3a6.85,6.85,0,0,0,.06-8.66l1.16-1.16,3.24,3.23a2.45,2.45,0,0,0,3.47,0l13.24-13.24A2.44,2.44,0,0,0,139.56,19.93Z"/><path class="cls-1" d="M106.86,9.82l2.21-2.21-4.16-4.16-1.63,1.64a.81.81,0,0,0,0,1.15Z"/><path class="cls-1" d="M112.06,3.82,108.48.24a.81.81,0,0,0-1.15,0l-1.64,1.63L109.85,6Z"/><path class="cls-1" d="M117.67,18.91l1.64-1.63-4.16-4.16-2.21,2.21,3.58,3.58A.83.83,0,0,0,117.67,18.91Z"/><path class="cls-1" d="M114.25,12.22l-4.4-4.39L107.64,10l4.4,4.39Z"/><path class="cls-1" d="M120.2,16.38l1.64-1.63a.84.84,0,0,0,0-1.16L118.26,10,116,12.22Z"/><path class="cls-1" d="M115.15,11.32l2.21-2.21L113,4.71l-2.21,2.22Z"/><path class="cls-1" d="M142.79,45.18l3.58,3.58a.82.82,0,0,0,1.16,0l1.63-1.63L145,43Z"/><path class="cls-1" d="M137.76,29.85a.82.82,0,0,0-.58.24l-1.63,1.63,4.16,4.16,2.21-2.21-3.58-3.58A.82.82,0,0,0,137.76,29.85Z"/><path class="cls-1" d="M134.65,32.62,133,34.25a.82.82,0,0,0,0,1.16L136.6,39l2.21-2.21Z"/><path class="cls-1" d="M145,41.17,147.21,39l-4.39-4.39-2.21,2.21Z"/><path class="cls-1" d="M151.69,43.44l-3.58-3.58-2.21,2.21,4.16,4.16,1.63-1.63A.82.82,0,0,0,151.69,43.44Z"/><path class="cls-1" d="M139.71,37.68l-2.21,2.21,4.39,4.39,2.21-2.21Z"/><path class="cls-1" d="M106.32,40.19a.76.76,0,0,0-.89.61,4.88,4.88,0,0,0,4.8,5.79,4.58,4.58,0,0,0,.9-.09.76.76,0,0,0-.28-1.5,3.35,3.35,0,0,1-3.92-3.92A.76.76,0,0,0,106.32,40.19Z"/><path class="cls-1" d="M111.49,47.27a5.83,5.83,0,0,1-6.83-6.83.76.76,0,0,0-1.5-.27,7.36,7.36,0,0,0,7.24,8.73,8,8,0,0,0,1.37-.13.78.78,0,0,0,.61-.89A.77.77,0,0,0,111.49,47.27Z"/><path class="cls-1" d="M141.12,15.58a1,1,0,0,0,0-1.46l-3.31-3.31a1,1,0,0,0-1.46,0l-2.09,2.09L139,17.67Z"/><path class="cls-1" d="M72,47A31.32,31.32,0,0,0,45.35,70.52a28.47,28.47,0,0,1-1.46,4.7,10.25,10.25,0,0,0,.18,7.9c1.85,3.5,5,4.61,12.73,4.57,6,0,11.76-1,20.7-3.38,6.17-1.62,7.58-2.26,5-2.26-2.11,0-2.33-.47-.88-1.79a6.3,6.3,0,0,1,4.23-2.05,3.55,3.55,0,0,0,2.33-1.33c2.65-2.86,8.46-5.72,9.52-4.69s-1.06,4.44-4.18,7.43c-2.12,2-3,3.2-3,3.93,0,1.11-2.78,4.48-3.7,4.48-.31,0-.44-.6-.35-1.71.08-.94,0-1.71-.14-1.71a30.69,30.69,0,0,0-3.7,3.2,42.67,42.67,0,0,1-28.72,12.43l-4.84.3L54,102a80,80,0,0,1,8.51,2.94A33.89,33.89,0,0,0,83.05,107c11.77-2.14,21.37-11.7,23.93-23.74,1.41-6.66.61-12.22-2.87-19.86a6.35,6.35,0,0,1-.75-2.47,24.2,24.2,0,0,1,4.14-.73c4.54-.56,6.83-.13,8.77,1.62,1.15,1,1.19,1.24,1,3.93a23,23,0,0,1-.49,3.72c-.17.46.23-.22.84-1.5A16.06,16.06,0,0,0,119,63.05c.57-6.45-4.72-9.22-16.26-8.58l-5.28.3-1.68-1.28A32.62,32.62,0,0,0,79.84,47,22,22,0,0,0,72,47Zm9.69,1.71a.43.43,0,0,1-.44.42.46.46,0,0,1-.44-.42.43.43,0,0,1,.44-.43A.41.41,0,0,1,81.69,48.75Zm-5.16,1.92c0,.21-.26.47-.66.55s-.79-.12-.79-.55C75.08,49.94,76.4,49.9,76.53,50.67Zm15.2,4c.14.72-.08.94-.75.94s-.92-.26-.92-.77C90.06,53.19,91.51,53.06,91.73,54.64Zm4,4.7c.09.29-.13.51-.53.51a.69.69,0,0,1-.71-.69C94.46,58.44,95.43,58.57,95.7,59.34ZM90.94,66a.67.67,0,0,1-.66.64c-.71,0-.88-.51-.35-1S90.94,65.36,90.94,66Z"/><path class="cls-2" d="M92.44,75.86c-.35.81.53,1.54,1.45,1.2s.53-1.58-.44-1.75A.92.92,0,0,0,92.44,75.86Z"/><path class="cls-2" d="M31.82,83.67c-1.8,1.8-3.08,4.53-2.77,5.77.79,3,4.71,4.22,14.31,4.4l7.27.12L45.39,92.9c-8.33-1.67-12.07-3.72-12.82-7a4,4,0,0,1,.22-2.18C33.54,82.39,33.1,82.35,31.82,83.67Z"/><path class="cls-1" d="M37,37.35l21-5.16L37,27.1,47.05,13.85,34.1,24,29,2.69,24,24.1,11,13.85,21,27,0,32.19,3.31,33,21,37.28,11,50.53l13-10.18L29,61.69l5-21.38L47,50.56,44.34,47Zm18.42-5.16H33.68l3.37-4.39.37.11ZM35,24.47,44.64,17,29.7,32a.13.13,0,0,1-.23-.1V28.68l.33-.27ZM29.5,6.23V28L25.12,24.6l.1-.37ZM14.33,17,29.26,32l0,0v0a.11.11,0,0,1-.1.1H26l-.27-.34-4-5.16ZM3.54,32.19H25.29l-3.38,4.38ZM24,39.87l-9.64,7.45L29.26,32.39l0,0h0s.1,0,.1.06v3.21l-.33.27ZM29.5,58.11V36.37l4.38,3.37-.1.37Zm.2-25.72a.13.13,0,0,1,0-.1.11.11,0,0,1,.1-.1h3.17l.27.37,11.43,14.8Z"/><path class="cls-3" d="M10.55,52.81a72.12,72.12,0,1,0,137.66-3.23,65.15,65.15,0,0,1-.47,36.3A69.12,69.12,0,1,1,13.2,54.5Zm36.81-41A68.84,68.84,0,0,1,66.64,5,65.5,65.5,0,0,1,103,4.48,72.43,72.43,0,0,0,44.48,10Z"/><rect class="cls-1" x="334" y="47.57" width="22.88" height="7.66" rx="3.83"/><path class="cls-1" d="M349.55,50.24l7-21.14a3.67,3.67,0,0,1,4.72-2.32h0a3.81,3.81,0,0,1,2.35,4.79l-7,21.14A3.69,3.69,0,0,1,351.9,55h0A3.81,3.81,0,0,1,349.55,50.24Z"/><path class="cls-1" d="M430.06,39.24a3.16,3.16,0,0,1,3.16-3.16h8.62A3.17,3.17,0,0,1,445,39.24h0a3.16,3.16,0,0,1-3.16,3.16h-8.62a3.15,3.15,0,0,1-3.16-3.16Z"/><path class="cls-1" d="M375.92,64l10.26-26.2A3.68,3.68,0,0,1,391,35.67h0a3.79,3.79,0,0,1,2.1,4.88L382.86,66.76A3.7,3.7,0,0,1,378,68.84h0A3.8,3.8,0,0,1,375.92,64Z"/><path class="cls-1" d="M388.7,35.67a3.77,3.77,0,0,1,4.89,2.23L403.82,64a3.88,3.88,0,0,1-2.05,5,3.77,3.77,0,0,1-4.89-2.23L386.65,40.71A3.88,3.88,0,0,1,388.7,35.67Z"/><path class="cls-1" d="M429.82,20.67l5.7,16.56a3.84,3.84,0,0,1-2.31,4.84h0a3.7,3.7,0,0,1-4.76-2.28l-5.71-16.56a3.84,3.84,0,0,1,2.32-4.84h0A3.69,3.69,0,0,1,429.82,20.67Z"/><path class="cls-1" d="M375.73,67.38l-18.6-34.56a3.82,3.82,0,0,1,1.49-5.14h0a3.65,3.65,0,0,1,5,1.46L382.27,63.7a3.83,3.83,0,0,1-1.49,5.14h0A3.66,3.66,0,0,1,375.73,67.38Z"/><path class="cls-1" d="M428.5,22.29,404.43,67a4,4,0,0,1-5.15,1.66h0a3.58,3.58,0,0,1-1.6-5L421.75,19a4,4,0,0,1,5.16-1.66h0A3.59,3.59,0,0,1,428.5,22.29Z"/></g></g></svg>